IKResults
version=1
nRows=21
nColumns=11
inDegrees=yes

Units are S.I. units (second, meters, Newtons, ...)
If the header above contains a line with 'inDegrees', this indicates whether rotational values are in degrees (yes) or radians (no).

endheader
time	pelvis_tilt	pelvis_tx	pelvis_ty	hip_flexion_r	knee_angle_r	ankle_angle_r	hip_flexion_l	knee_angle_l	ankle_angle_l	lumbar_extension
      9.60000000	    -24.16660635	     -2.42976102	      0.88646975	     29.08384588	    -16.06214073	     17.31278838	     25.77782677	     -9.79229596	     13.97873233	     25.35775073
      9.63333333	    -24.16781556	     -2.42953759	      0.88636215	     29.04123280	    -16.11116081	     17.26729992	     25.78830692	     -9.99760945	     14.26728811	     25.35528248
      9.66666667	    -24.07888834	     -2.42945641	      0.88647532	     28.97251600	    -16.23201451	     17.14875089	     25.71178043	    -10.19723381	     14.51601074	     25.25947163
      9.70000000	    -23.79872717	     -2.42945546	      0.88692830	     28.69048184	    -16.27956402	     17.00099173	     25.39366591	    -10.24673318	     14.62154666	     24.94489303
      9.73333333	    -23.56987329	     -2.42961674	      0.88735133	     28.45506000	    -16.26622706	     16.83133020	     25.14140279	    -10.24080510	     14.59493396	     24.68361369
      9.76666667	    -23.36847981	     -2.42992404	      0.88774587	     28.26719062	    -16.25504219	     16.71290812	     24.88115961	    -10.10753643	     14.44216775	     24.43167996
      9.80000000	    -23.25496699	     -2.43027592	      0.88799928	     28.16624093	    -16.21861556	     16.70292068	     24.66587316	     -9.87774977	     14.22053580	     24.25674706
      9.83333333	    -23.29672833	     -2.43054001	      0.88800194	     28.24184912	    -16.21065674	     16.77327902	     24.55718591	     -9.56624168	     14.06991686	     24.25288189
      9.86666667	    -23.38702926	     -2.43062742	      0.88792389	     28.34181459	    -16.15330854	     16.83834454	     24.47844148	     -9.24936887	     14.07682516	     24.31128265
      9.90000000	    -23.57359781	     -2.43055294	      0.88766907	     28.54565786	    -16.11068360	     16.87112920	     24.53217374	     -9.03227756	     14.25250613	     24.50846064
      9.93333333	    -23.61187607	     -2.43035862	      0.88758904	     28.60736463	    -16.10611797	     16.85234522	     24.46608143	     -8.90529472	     14.49279003	     24.55213930
      9.96666667	    -23.79629361	     -2.43008658	      0.88728902	     28.86897576	    -16.20964887	     16.84773108	     24.62765568	     -8.91291304	     14.67281978	     24.79900354
     10.00000000	    -23.82019618	     -2.42981337	      0.88730071	     29.00640212	    -16.37885091	     16.77555948	     24.69482378	     -9.00665748	     14.76285493	     24.86399966
     10.03333333	    -23.88600476	     -2.42962251	      0.88737287	     29.23811786	    -16.60266694	     16.62067863	     24.88608315	     -9.17832061	     14.75948577	     24.97566193
     10.06666667	    -23.97697982	     -2.42958911	      0.88751374	     29.53562463	    -16.84275486	     16.42963957	     25.12751933	     -9.33420844	     14.68573955	     25.09241888
     10.10000000	    -23.92573390	     -2.42985600	      0.88782042	     29.74860114	    -17.15732905	     16.29628458	     25.18844643	     -9.39282901	     14.67940637	     24.97564224
     10.13333333	    -23.86793266	     -2.43047290	      0.88804984	     29.95684412	    -17.45686167	     16.23986828	     25.22955135	     -9.40748077	     14.74243257	     24.77087024
     10.16666667	    -23.78178346	     -2.43142004	      0.88823100	     30.08993480	    -17.69682784	     16.34418025	     25.25600815	     -9.40761266	     14.92070950	     24.44639272
     10.20000000	    -23.46962573	     -2.43258768	      0.88879369	     29.85936599	    -17.73441949	     16.58361640	     25.07118734	     -9.39356196	     15.10410240	     23.77989641
     10.23333333	    -23.31253629	     -2.43381061	      0.88918057	     29.74887802	    -17.74727585	     16.93036302	     25.09848782	     -9.47857321	     15.27529232	     23.28243304
     10.26666667	    -22.96679493	     -2.43463814	      0.88984950	     29.30208746	    -17.55178701	     17.20870076	     24.80586064	     -9.44274894	     15.31016693	     22.61619675
